<mxfile host="app.diagrams.net" modified="2024-07-02T12:10:32.207Z" agent="Mozilla/5.0 (Windows NT 10.0; Win64; x64) AppleWebKit/537.36 (KHTML, like Gecko) Chrome/126.0.0.0 Safari/537.36" etag="JljXzxd4iCTXnvcbHWbV" version="24.6.4" type="google">
  <diagram name="Page-1" id="pSRUUcnSzy8fojyQT8Ka">
    <mxGraphModel grid="1" page="1" gridSize="10" guides="1" tooltips="1" connect="1" arrows="1" fold="1" pageScale="1" pageWidth="827" pageHeight="1169" math="0" shadow="0">
      <root>
        <mxCell id="0" />
        <mxCell id="1" parent="0" />
        <mxCell id="FbwwR4-YEnm6KfEPLVHk-1" value="" style="rounded=0;whiteSpace=wrap;html=1;" vertex="1" parent="1">
          <mxGeometry x="-690" y="130" width="1290" height="860" as="geometry" />
        </mxCell>
        <mxCell id="FbwwR4-YEnm6KfEPLVHk-5" value="" style="rounded=0;whiteSpace=wrap;html=1;fillColor=#f5f5f5;fontColor=#333333;strokeColor=#666666;" vertex="1" parent="1">
          <mxGeometry x="-640" y="310" width="1200" height="640" as="geometry" />
        </mxCell>
        <mxCell id="rZpnh5A8yFDAaO-q1UI5-40" style="edgeStyle=orthogonalEdgeStyle;rounded=0;orthogonalLoop=1;jettySize=auto;html=1;exitX=0.5;exitY=1;exitDx=0;exitDy=0;" edge="1" parent="1" source="FbwwR4-YEnm6KfEPLVHk-8" target="FbwwR4-YEnm6KfEPLVHk-14">
          <mxGeometry relative="1" as="geometry" />
        </mxCell>
        <mxCell id="FbwwR4-YEnm6KfEPLVHk-8" value="" style="image;aspect=fixed;perimeter=ellipsePerimeter;html=1;align=center;shadow=0;dashed=0;spacingTop=3;image=img/lib/active_directory/internet_cloud.svg;" vertex="1" parent="1">
          <mxGeometry x="-159.05" y="140" width="238.1" height="150" as="geometry" />
        </mxCell>
        <mxCell id="FbwwR4-YEnm6KfEPLVHk-10" value="" style="whiteSpace=wrap;html=1;aspect=fixed;" vertex="1" parent="1">
          <mxGeometry x="-630" y="650" width="290" height="290" as="geometry" />
        </mxCell>
        <mxCell id="FbwwR4-YEnm6KfEPLVHk-11" value="" style="whiteSpace=wrap;html=1;aspect=fixed;" vertex="1" parent="1">
          <mxGeometry x="-300" y="650" width="180" height="180" as="geometry" />
        </mxCell>
        <mxCell id="FbwwR4-YEnm6KfEPLVHk-12" value="" style="whiteSpace=wrap;html=1;aspect=fixed;" vertex="1" parent="1">
          <mxGeometry x="-78.45" y="690" width="180" height="180" as="geometry" />
        </mxCell>
        <mxCell id="FbwwR4-YEnm6KfEPLVHk-13" value="" style="whiteSpace=wrap;html=1;aspect=fixed;" vertex="1" parent="1">
          <mxGeometry x="130" y="690" width="180" height="180" as="geometry" />
        </mxCell>
        <mxCell id="rZpnh5A8yFDAaO-q1UI5-34" style="edgeStyle=orthogonalEdgeStyle;rounded=0;orthogonalLoop=1;jettySize=auto;html=1;exitX=0;exitY=0.5;exitDx=0;exitDy=0;exitPerimeter=0;entryX=0.5;entryY=0;entryDx=0;entryDy=0;" edge="1" parent="1" source="FbwwR4-YEnm6KfEPLVHk-14" target="rZpnh5A8yFDAaO-q1UI5-17">
          <mxGeometry relative="1" as="geometry" />
        </mxCell>
        <mxCell id="FbwwR4-YEnm6KfEPLVHk-14" value="" style="sketch=0;aspect=fixed;pointerEvents=1;shadow=0;dashed=0;html=1;strokeColor=none;labelPosition=center;verticalLabelPosition=bottom;verticalAlign=top;align=center;fillColor=#00188D;shape=mxgraph.mscae.enterprise.firewall" vertex="1" parent="1">
          <mxGeometry x="-87.73" y="330" width="95.45" height="84" as="geometry" />
        </mxCell>
        <mxCell id="rZpnh5A8yFDAaO-q1UI5-37" style="edgeStyle=orthogonalEdgeStyle;rounded=0;orthogonalLoop=1;jettySize=auto;html=1;exitX=0.5;exitY=1;exitDx=0;exitDy=0;entryX=0.5;entryY=0;entryDx=0;entryDy=0;" edge="1" parent="1" source="FbwwR4-YEnm6KfEPLVHk-16" target="FbwwR4-YEnm6KfEPLVHk-12">
          <mxGeometry relative="1" as="geometry" />
        </mxCell>
        <mxCell id="rZpnh5A8yFDAaO-q1UI5-38" style="edgeStyle=orthogonalEdgeStyle;rounded=0;orthogonalLoop=1;jettySize=auto;html=1;exitX=0.5;exitY=1;exitDx=0;exitDy=0;entryX=0.5;entryY=0;entryDx=0;entryDy=0;" edge="1" parent="1" source="FbwwR4-YEnm6KfEPLVHk-16" target="rZpnh5A8yFDAaO-q1UI5-14">
          <mxGeometry relative="1" as="geometry" />
        </mxCell>
        <mxCell id="rZpnh5A8yFDAaO-q1UI5-39" style="edgeStyle=orthogonalEdgeStyle;rounded=0;orthogonalLoop=1;jettySize=auto;html=1;exitX=0.5;exitY=1;exitDx=0;exitDy=0;" edge="1" parent="1" source="FbwwR4-YEnm6KfEPLVHk-16" target="FbwwR4-YEnm6KfEPLVHk-13">
          <mxGeometry relative="1" as="geometry" />
        </mxCell>
        <mxCell id="FbwwR4-YEnm6KfEPLVHk-16" value="" style="image;html=1;image=img/lib/clip_art/networking/Switch_128x128.png" vertex="1" parent="1">
          <mxGeometry x="71.55" y="480" width="100" height="80" as="geometry" />
        </mxCell>
        <mxCell id="FbwwR4-YEnm6KfEPLVHk-18" value="" style="fontColor=#0066CC;verticalAlign=top;verticalLabelPosition=bottom;labelPosition=center;align=center;html=1;outlineConnect=0;fillColor=#CCCCCC;strokeColor=#6881B3;gradientColor=none;gradientDirection=north;strokeWidth=2;shape=mxgraph.networks.pc;" vertex="1" parent="1">
          <mxGeometry x="-58.45" y="790" width="50" height="40" as="geometry" />
        </mxCell>
        <mxCell id="FbwwR4-YEnm6KfEPLVHk-19" value="" style="html=1;verticalLabelPosition=bottom;align=center;labelBackgroundColor=#ffffff;verticalAlign=top;strokeWidth=2;strokeColor=#666666;shadow=0;dashed=0;shape=mxgraph.ios7.icons.printer;fillColor=#f5f5f5;fontColor=#333333;" vertex="1" parent="1">
          <mxGeometry x="21.549999999999997" y="790" width="50" height="40" as="geometry" />
        </mxCell>
        <mxCell id="FbwwR4-YEnm6KfEPLVHk-20" value="" style="fontColor=#0066CC;verticalAlign=top;verticalLabelPosition=bottom;labelPosition=center;align=center;html=1;outlineConnect=0;fillColor=#CCCCCC;strokeColor=#6881B3;gradientColor=none;gradientDirection=north;strokeWidth=2;shape=mxgraph.networks.pc;" vertex="1" parent="1">
          <mxGeometry x="155" y="790" width="50" height="40" as="geometry" />
        </mxCell>
        <mxCell id="FbwwR4-YEnm6KfEPLVHk-21" value="" style="html=1;verticalLabelPosition=bottom;align=center;labelBackgroundColor=#ffffff;verticalAlign=top;strokeWidth=2;strokeColor=#666666;shadow=0;dashed=0;shape=mxgraph.ios7.icons.printer;fillColor=#f5f5f5;fontColor=#333333;" vertex="1" parent="1">
          <mxGeometry x="235" y="790" width="50" height="40" as="geometry" />
        </mxCell>
        <mxCell id="FbwwR4-YEnm6KfEPLVHk-22" value="" style="fontColor=#0066CC;verticalAlign=top;verticalLabelPosition=bottom;labelPosition=center;align=center;html=1;outlineConnect=0;fillColor=#CCCCCC;strokeColor=#6881B3;gradientColor=none;gradientDirection=north;strokeWidth=2;shape=mxgraph.networks.pc;" vertex="1" parent="1">
          <mxGeometry x="-235" y="765" width="50" height="40" as="geometry" />
        </mxCell>
        <mxCell id="rZpnh5A8yFDAaO-q1UI5-1" style="edgeStyle=orthogonalEdgeStyle;rounded=0;orthogonalLoop=1;jettySize=auto;html=1;exitX=0.992;exitY=0.47;exitDx=0;exitDy=0;exitPerimeter=0;" edge="1" parent="1" source="FbwwR4-YEnm6KfEPLVHk-14" target="FbwwR4-YEnm6KfEPLVHk-16">
          <mxGeometry relative="1" as="geometry">
            <mxPoint x="10" y="370" as="sourcePoint" />
            <mxPoint x="279" y="544" as="targetPoint" />
            <Array as="points">
              <mxPoint x="120" y="369" />
            </Array>
          </mxGeometry>
        </mxCell>
        <mxCell id="rZpnh5A8yFDAaO-q1UI5-4" value="SRV-DC" style="image;points=[];aspect=fixed;html=1;align=center;shadow=0;dashed=0;image=img/lib/allied_telesis/computer_and_terminals/Server_Desktop.svg;" vertex="1" parent="1">
          <mxGeometry x="-595.22" y="720" width="47.33" height="60" as="geometry" />
        </mxCell>
        <mxCell id="rZpnh5A8yFDAaO-q1UI5-8" value="&lt;font style=&quot;font-size: 18px;&quot;&gt;SRV&lt;/font&gt;" style="text;html=1;align=center;verticalAlign=middle;whiteSpace=wrap;rounded=0;" vertex="1" parent="1">
          <mxGeometry x="-516.89" y="660" width="76.89" height="30" as="geometry" />
        </mxCell>
        <mxCell id="rZpnh5A8yFDAaO-q1UI5-9" value="&lt;span style=&quot;font-size: 18px;&quot;&gt;SWITCH&lt;/span&gt;" style="text;html=1;align=center;verticalAlign=middle;whiteSpace=wrap;rounded=0;" vertex="1" parent="1">
          <mxGeometry x="-523.45" y="414" width="76.89" height="30" as="geometry" />
        </mxCell>
        <mxCell id="rZpnh5A8yFDAaO-q1UI5-10" value="&lt;span style=&quot;font-size: 18px;&quot;&gt;SWITCH&lt;/span&gt;" style="text;html=1;align=center;verticalAlign=middle;whiteSpace=wrap;rounded=0;" vertex="1" parent="1">
          <mxGeometry x="173.11" y="470" width="76.89" height="30" as="geometry" />
        </mxCell>
        <mxCell id="rZpnh5A8yFDAaO-q1UI5-11" value="&lt;span style=&quot;font-size: 18px;&quot;&gt;FIREWALL&lt;/span&gt;" style="text;html=1;align=center;verticalAlign=middle;whiteSpace=wrap;rounded=0;" vertex="1" parent="1">
          <mxGeometry x="-78.44999999999999" y="420" width="76.89" height="30" as="geometry" />
        </mxCell>
        <mxCell id="rZpnh5A8yFDAaO-q1UI5-14" value="" style="whiteSpace=wrap;html=1;aspect=fixed;" vertex="1" parent="1">
          <mxGeometry x="340" y="690" width="180" height="180" as="geometry" />
        </mxCell>
        <mxCell id="rZpnh5A8yFDAaO-q1UI5-15" value="" style="fontColor=#0066CC;verticalAlign=top;verticalLabelPosition=bottom;labelPosition=center;align=center;html=1;outlineConnect=0;fillColor=#CCCCCC;strokeColor=#6881B3;gradientColor=none;gradientDirection=north;strokeWidth=2;shape=mxgraph.networks.pc;" vertex="1" parent="1">
          <mxGeometry x="365" y="790" width="50" height="40" as="geometry" />
        </mxCell>
        <mxCell id="rZpnh5A8yFDAaO-q1UI5-16" value="" style="html=1;verticalLabelPosition=bottom;align=center;labelBackgroundColor=#ffffff;verticalAlign=top;strokeWidth=2;strokeColor=#666666;shadow=0;dashed=0;shape=mxgraph.ios7.icons.printer;fillColor=#f5f5f5;fontColor=#333333;" vertex="1" parent="1">
          <mxGeometry x="445" y="790" width="50" height="40" as="geometry" />
        </mxCell>
        <mxCell id="rZpnh5A8yFDAaO-q1UI5-35" style="edgeStyle=orthogonalEdgeStyle;rounded=0;orthogonalLoop=1;jettySize=auto;html=1;exitX=0.5;exitY=1;exitDx=0;exitDy=0;entryX=0.5;entryY=0;entryDx=0;entryDy=0;" edge="1" parent="1" source="rZpnh5A8yFDAaO-q1UI5-17" target="FbwwR4-YEnm6KfEPLVHk-10">
          <mxGeometry relative="1" as="geometry" />
        </mxCell>
        <mxCell id="rZpnh5A8yFDAaO-q1UI5-36" style="edgeStyle=orthogonalEdgeStyle;rounded=0;orthogonalLoop=1;jettySize=auto;html=1;exitX=0.5;exitY=1;exitDx=0;exitDy=0;entryX=0.5;entryY=0;entryDx=0;entryDy=0;" edge="1" parent="1" source="rZpnh5A8yFDAaO-q1UI5-17" target="FbwwR4-YEnm6KfEPLVHk-11">
          <mxGeometry relative="1" as="geometry" />
        </mxCell>
        <mxCell id="rZpnh5A8yFDAaO-q1UI5-17" value="" style="image;html=1;image=img/lib/clip_art/networking/Switch_128x128.png" vertex="1" parent="1">
          <mxGeometry x="-430" y="395" width="100" height="80" as="geometry" />
        </mxCell>
        <mxCell id="rZpnh5A8yFDAaO-q1UI5-26" value="&lt;span style=&quot;font-size: 18px;&quot;&gt;DIRECTION&lt;/span&gt;" style="text;html=1;align=center;verticalAlign=middle;whiteSpace=wrap;rounded=0;" vertex="1" parent="1">
          <mxGeometry x="391.56000000000006" y="700" width="76.89" height="30" as="geometry" />
        </mxCell>
        <mxCell id="rZpnh5A8yFDAaO-q1UI5-27" value="&lt;span style=&quot;font-size: 18px;&quot;&gt;SERVICE&lt;/span&gt;&lt;div&gt;&lt;span style=&quot;font-size: 18px;&quot;&gt;INFORMATIQUE&lt;/span&gt;&lt;/div&gt;" style="text;html=1;align=center;verticalAlign=middle;whiteSpace=wrap;rounded=0;" vertex="1" parent="1">
          <mxGeometry x="181.56" y="700" width="76.89" height="30" as="geometry" />
        </mxCell>
        <mxCell id="rZpnh5A8yFDAaO-q1UI5-28" value="&lt;span style=&quot;font-size: 18px;&quot;&gt;R&lt;/span&gt;&lt;span style=&quot;color: rgba(0, 0, 0, 0); font-family: monospace; font-size: 0px; text-align: start; text-wrap: nowrap;&quot;&gt;%3CmxGraphModel%3E%3Croot%3E%3CmxCell%20id%3D%220%22%2F%3E%3CmxCell%20id%3D%221%22%20parent%3D%220%22%2F%3E%3CmxCell%20id%3D%222%22%20value%3D%22%26lt%3Bfont%20style%3D%26quot%3Bfont-size%3A%2018px%3B%26quot%3B%26gt%3BSRV%26lt%3B%2Ffont%26gt%3B%22%20style%3D%22text%3Bhtml%3D1%3Balign%3Dcenter%3BverticalAlign%3Dmiddle%3BwhiteSpace%3Dwrap%3Brounded%3D0%3B%22%20vertex%3D%221%22%20parent%3D%221%22%3E%3CmxGeometry%20x%3D%22-496.89%22%20y%3D%22590%22%20width%3D%2276.89%22%20height%3D%2230%22%20as%3D%22geometry%22%2F%3E%3C%2FmxCell%3E%3C%2Froot%3E%3C%2FmxGraphModel%3E&lt;/span&gt;&lt;span style=&quot;font-size: 18px;&quot;&gt;H&lt;/span&gt;&lt;span style=&quot;color: rgba(0, 0, 0, 0); font-family: monospace; font-size: 0px; text-align: start; text-wrap: nowrap;&quot;&gt;%3CmxGraphModel%3E%3Croot%3E%3CmxCell%20id%3D%220%22%2F%3E%3CmxCell%20id%3D%221%22%20parent%3D%220%22%2F%3E%3CmxCell%20id%3D%222%22%20value%3D%22%26lt%3Bfont%20style%3D%26quot%3Bfont-size%3A%2018px%3B%26quot%3B%26gt%3BSRV%26lt%3B%2Ffont%26gt%3B%22%20style%3D%22text%3Bhtml%3D1%3Balign%3Dcenter%3BverticalAlign%3Dmiddle%3BwhiteSpace%3Dwrap%3Brounded%3D0%3B%22%20vertex%3D%221%22%20parent%3D%221%22%3E%3CmxGeometry%20x%3D%22-496.89%22%20y%3D%22590%22%20width%3D%2276.89%22%20height%3D%2230%22%20as%3D%22geometry%22%2F%3E%3C%2FmxCell%3E%3C%2Froot%3E%3C%2FmxGraphModel%3E&lt;/span&gt;" style="text;html=1;align=center;verticalAlign=middle;whiteSpace=wrap;rounded=0;" vertex="1" parent="1">
          <mxGeometry x="-26.889999999999986" y="700" width="76.89" height="30" as="geometry" />
        </mxCell>
        <mxCell id="rZpnh5A8yFDAaO-q1UI5-29" value="&lt;span style=&quot;font-size: 18px;&quot;&gt;STATION-&lt;/span&gt;&lt;div&gt;&lt;span style=&quot;font-size: 18px;&quot;&gt;TEST&lt;/span&gt;&lt;/div&gt;" style="text;html=1;align=center;verticalAlign=middle;whiteSpace=wrap;rounded=0;" vertex="1" parent="1">
          <mxGeometry x="-280" y="670" width="150" height="30" as="geometry" />
        </mxCell>
        <mxCell id="rZpnh5A8yFDAaO-q1UI5-32" value="SRV-LINUX&lt;div&gt;&lt;br&gt;&lt;/div&gt;" style="image;points=[];aspect=fixed;html=1;align=center;shadow=0;dashed=0;image=img/lib/allied_telesis/computer_and_terminals/Server_Desktop.svg;" vertex="1" parent="1">
          <mxGeometry x="-516.89" y="720" width="47.33" height="60" as="geometry" />
        </mxCell>
        <mxCell id="rZpnh5A8yFDAaO-q1UI5-41" value="&lt;div&gt;HONEYPOT&lt;/div&gt;" style="image;points=[];aspect=fixed;html=1;align=center;shadow=0;dashed=0;image=img/lib/allied_telesis/computer_and_terminals/Server_Desktop.svg;" vertex="1" parent="1">
          <mxGeometry x="-437" y="720" width="47.33" height="60" as="geometry" />
        </mxCell>
        <mxCell id="rZpnh5A8yFDAaO-q1UI5-42" value="&lt;div&gt;SRV-LOGS&lt;/div&gt;&lt;div&gt;&lt;br&gt;&lt;/div&gt;" style="image;points=[];aspect=fixed;html=1;align=center;shadow=0;dashed=0;image=img/lib/allied_telesis/computer_and_terminals/Server_Desktop.svg;" vertex="1" parent="1">
          <mxGeometry x="-595.22" y="820" width="47.33" height="60" as="geometry" />
        </mxCell>
      </root>
    </mxGraphModel>
  </diagram>
</mxfile>
